# xmcd
#
# Track frame offsets:
#	150
#	12077
#	23557
#	35305
#	47917
#	60670
#	72190
#	83722
#	96442
#	108460
#	120205
#	133237
#	145465
#	160592
#	172787
#	184667
#	197772
#	209752
#	221810
#	234675
#	247447
#	261622
#	272785
#	285135
#
# Disc length: 3976 seconds
# Revision: 0
# Processed by: cddbd v1.5.2PL0 Copyright (c) Steve Scherf et al.
# Submitted via: dBpowerAMP V12.0
#
DISCID=660f8618
DTITLE=Various Artist - Honky Tonk Blues
DYEAR=1900
DGENRE=Country
TTITLE0=Ernest Tubb - Walking The Floor Over You
TTITLE1=Ernest Tubb - I Ain't Honky Tonkin' Anymore
TTITLE2=Al Dexter - Honky Tonk Blues
TTITLE3=Al Dexter - Pistol Packin' Mama
TTITLE4=Roy Acuff - Wabash Cannonball
TTITLE5=Roy Acuff - Fireball Mail
TTITLE6=Roy Acuff - Low And Lonely
TTITLE7=Roy Acuff - Night Train To Memphis
TTITLE8=Bill Monroe - Footprints In The Snow
TTITLE9=Bill Monroe - Rocky Road Blues
TTITLE10=Spade Cooley - Shame On You
TTITLE11=Cliff Bruner and Moon Mullican - When You're Smiling
TTITLE12=Milton Brown - You Rascal You
TTITLE13=Ted Daffan - Born To Lose
TTITLE14=Wiley Walker and Gene Sullivan - When My Blue Moon Turns To Gold Again
TTITLE15=Bob Wills - Right Or Wrong
TTITLE16=Bob Wills - New San Antonio Rose
TTITLE17=Bob Wills - Take Me Back To Tulsa
TTITLE18=Bob Wills - Roly Poly
TTITLE19=Johnnie Lee Wills - Milk Cow Blues
TTITLE20=Bill Boyd - Fan It
TTITLE21=Modern Mountaineers - Everybody's Truckin'
TTITLE22=Delmore Brothers - Hillbilly Boogie
TTITLE23=Arthur Smith - Guitar Boogie
EXTD=
EXTT0=
EXTT1=
EXTT2=
EXTT3=
EXTT4=
EXTT5=
EXTT6=
EXTT7=
EXTT8=
EXTT9=
EXTT10=
EXTT11=
EXTT12=
EXTT13=
EXTT14=
EXTT15=
EXTT16=
EXTT17=
EXTT18=
EXTT19=
EXTT20=
EXTT21=
EXTT22=
EXTT23=
PLAYORDER=
